<svg xmlns="http://www.w3.org/2000/svg" viewBox="0 0 512 512"><defs><linearGradient id="g" x1="0" x2="1" y1="1" y2="0"><stop stop-color="#073e72"/><stop offset=".58" stop-color="#0d69ad"/><stop offset="1" stop-color="#18a77b"/></linearGradient><linearGradient id="leaf" x1="0" x2="1"><stop stop-color="#61b741"/><stop offset="1" stop-color="#a8cb37"/></linearGradient></defs><circle cx="256" cy="256" r="238" fill="url(#g)"/><circle cx="256" cy="256" r="218" fill="none" stroke="#fff" stroke-opacity=".22" stroke-width="4"/><path d="M271 244c-7-79 29-132 111-153-3 83-38 135-111 153Z" fill="url(#leaf)"/><path d="M274 239c26-49 57-84 98-118" fill="none" stroke="#fff" stroke-opacity=".62" stroke-width="10" stroke-linecap="round"/><path d="M245 257c-16-61-57-99-123-111 9 72 49 112 123 111Z" fill="#53b54c"/><path d="M236 248c-28-38-58-65-94-82" fill="none" stroke="#fff" stroke-opacity=".56" stroke-width="9" stroke-linecap="round"/><path d="M121 333c64-83 134-78 189-12 31 37 67 48 103 16" fill="none" stroke="#fff" stroke-width="18" stroke-linecap="round"/><circle cx="121" cy="333" r="18" fill="#fff"/><circle cx="310" cy="321" r="16" fill="#fff"/><circle cx="413" cy="337" r="17" fill="#fff"/><path d="M151 333h52v-50h46" fill="none" stroke="#fff" stroke-width="14" stroke-linecap="round" stroke-linejoin="round"/><circle cx="249" cy="283" r="14" fill="#fff"/><path d="M251 376c0-50 6-87 22-120" fill="none" stroke="#fff" stroke-width="16" stroke-linecap="round"/><circle cx="251" cy="390" r="18" fill="#fff"/></svg>